<svg width="450" height="273" viewBox="0 0 450 273" fill="none" xmlns="http://www.w3.org/2000/svg">
<path d="M350.528 124.826C349.709 118.84 348.454 112.868 346.747 106.956" stroke="white" stroke-width="8" stroke-miterlimit="10" stroke-linecap="round" stroke-linejoin="round"/>
<path d="M315.576 230.717C339.642 206.079 352.542 172.65 351.647 138.601" stroke="white" stroke-width="8" stroke-miterlimit="10" stroke-linecap="round" stroke-linejoin="round"/>
<path d="M147.557 242.794C185.261 271.638 237.682 278.049 282.721 254.924C291.368 250.484 299.289 245.189 306.433 239.195" stroke="white" stroke-width="8" stroke-miterlimit="10" stroke-linecap="round" stroke-linejoin="round"/>
<path d="M126.36 222.222C129.539 226.13 132.923 229.813 136.49 233.264" stroke="white" stroke-width="8" stroke-miterlimit="10" stroke-linecap="round" stroke-linejoin="round"/>
<path d="M90.1951 113.765C89.8121 115.585 89.4651 117.413 89.1541 119.247" stroke="white" stroke-width="8" stroke-miterlimit="10" stroke-linecap="round" stroke-linejoin="round"/>
<path d="M130.228 42.168C116.243 55.417 105.079 71.582 97.717 89.404C96.092 93.338 94.65 97.346 93.395 101.412" stroke="white" stroke-width="8" stroke-miterlimit="10" stroke-linecap="round" stroke-linejoin="round"/>
<path d="M300.048 27.019C288.713 19.611 276.293 13.882 263.258 10.075C242.193 3.923 219.781 2.86 198.246 7.117C178.83 10.956 160.299 18.995 144.253 30.556" stroke="white" stroke-width="8" stroke-miterlimit="10" stroke-linecap="round" stroke-linejoin="round"/>
<path d="M297.261 104.797L152.245 179.255" stroke="white" stroke-width="8" stroke-miterlimit="10" stroke-linecap="round" stroke-linejoin="round"/>
<path d="M123.524 194.004L4 255.373L65.65 213.057C88.644 197.269 102.087 171.029 101.86 143.13C101.492 98.166 125.904 54.655 168.63 32.718C211.356 10.781 260.941 16.297 297.267 42.799C319.799 59.246 348.956 63.613 375.195 54.122L445.509 28.681L325.985 90.05C354.688 145.952 332.633 214.555 276.731 243.257C220.82 271.965 152.227 249.906 123.524 194.004Z" stroke="white" stroke-width="8" stroke-miterlimit="10" stroke-linecap="round" stroke-linejoin="round"/>
<path d="M261.981 214.532C302.025 193.972 317.82 144.842 297.259 104.798L152.247 179.254C172.807 219.298 221.937 235.093 261.981 214.532Z" stroke="white" stroke-width="8" stroke-miterlimit="10" stroke-linecap="round" stroke-linejoin="round"/>
<path d="M291.688 153.429C293.266 144.17 292.94 134.534 290.514 125.135" stroke="white" stroke-width="8" stroke-miterlimit="10" stroke-linecap="round" stroke-linejoin="round"/>
<path d="M274.514 188.301C276.428 186.237 278.202 184.067 279.829 181.805" stroke="white" stroke-width="8" stroke-miterlimit="10" stroke-linecap="round" stroke-linejoin="round"/>
<path d="M211.717 208.783C226.159 211.599 241.616 209.766 255.721 202.524" stroke="white" stroke-width="8" stroke-miterlimit="10" stroke-linecap="round" stroke-linejoin="round"/>
<path d="M176.176 189.698C179.205 192.784 182.498 195.545 185.999 197.963" stroke="white" stroke-width="8" stroke-miterlimit="10" stroke-linecap="round" stroke-linejoin="round"/>
<path d="M277.591 79.987C253.206 59.23 217.782 53.984 187.525 69.52C157.268 85.056 140.888 116.899 143.546 148.812L277.591 79.987Z" stroke="white" stroke-width="8" stroke-miterlimit="10" stroke-linecap="round" stroke-linejoin="round"/>
<path d="M132.351 119.693C129.988 129.499 129.17 139.701 130.02 149.91" stroke="white" stroke-width="8" stroke-miterlimit="10" stroke-linecap="round" stroke-linejoin="round"/>
<path d="M256.906 52.432C232.999 43.859 205.745 44.819 181.365 57.337C160.515 68.042 145.309 85.381 136.987 105.454" stroke="white" stroke-width="8" stroke-miterlimit="10" stroke-linecap="round" stroke-linejoin="round"/>
<path d="M286.515 69.558C280.813 64.704 274.594 60.577 268.01 57.226" stroke="white" stroke-width="8" stroke-miterlimit="10" stroke-linecap="round" stroke-linejoin="round"/>
<path d="M315.358 80.634L323.137 76.64" stroke="white" stroke-width="8" stroke-miterlimit="10" stroke-linecap="round" stroke-linejoin="round"/>
<path d="M299.8 88.622L303.39 86.779" stroke="white" stroke-width="8" stroke-miterlimit="10" stroke-linecap="round" stroke-linejoin="round"/>
<path d="M199.868 139.932L288.43 94.46" stroke="white" stroke-width="8" stroke-miterlimit="10" stroke-linecap="round" stroke-linejoin="round"/>
<path d="M145.413 167.891L189.097 145.462" stroke="white" stroke-width="8" stroke-miterlimit="10" stroke-linecap="round" stroke-linejoin="round"/>
<path d="M120.281 180.795L132.847 174.343" stroke="white" stroke-width="8" stroke-miterlimit="10" stroke-linecap="round" stroke-linejoin="round"/>
<path d="M90.9741 225.333L106.532 217.344" stroke="white" stroke-width="8" stroke-miterlimit="10" stroke-linecap="round" stroke-linejoin="round"/>
<path d="M35.323 253.906L77.809 232.092" stroke="white" stroke-width="8" stroke-miterlimit="10" stroke-linecap="round" stroke-linejoin="round"/>
<path d="M415.904 58.499L427.273 52.661" stroke="white" stroke-width="8" stroke-miterlimit="10" stroke-linecap="round" stroke-linejoin="round"/>
<path d="M391.967 70.789L397.353 68.024" stroke="white" stroke-width="8" stroke-miterlimit="10" stroke-linecap="round" stroke-linejoin="round"/>
<path d="M356.064 89.223L381.197 76.319" stroke="white" stroke-width="8" stroke-miterlimit="10" stroke-linecap="round" stroke-linejoin="round"/>
<path d="M137.985 186.577L311.52 97.476" stroke="white" stroke-width="8" stroke-miterlimit="10" stroke-linecap="round" stroke-linejoin="round"/>
<path d="M35.6579 177.74C44.5905 177.74 51.8319 170.499 51.8319 161.566C51.8319 152.633 44.5905 145.392 35.6579 145.392C26.7252 145.392 19.4839 152.633 19.4839 161.566C19.4839 170.499 26.7252 177.74 35.6579 177.74Z" stroke="white" stroke-width="8" stroke-miterlimit="10" stroke-linecap="round" stroke-linejoin="round"/>
<path d="M422.211 229.496C433.823 229.496 443.237 220.082 443.237 208.47C443.237 196.858 433.823 187.444 422.211 187.444C410.599 187.444 401.185 196.858 401.185 208.47C401.185 220.082 410.599 229.496 422.211 229.496Z" stroke="white" stroke-width="8" stroke-miterlimit="10" stroke-linecap="round" stroke-linejoin="round"/>
</svg>
