<svg width="380" height="380" viewBox="0 0 380 380" fill="none" xmlns="http://www.w3.org/2000/svg">
<path d="M372.263 7.317C362.329 -2.617 344.061 -2.435 317.967 7.857C294.621 17.065 265.777 34.212 234.464 57.466C210.524 49.4 184.86 47.946 160.089 53.313C133.929 58.981 110.051 72.026 91.038 91.039C72.025 110.052 58.98 133.929 53.312 160.09C47.945 184.861 49.398 210.525 57.464 234.465C34.211 265.778 17.064 294.622 7.85497 317.968C-2.43703 344.062 -2.61903 362.329 7.31497 372.263C12.194 377.141 19.082 379.58 27.92 379.58C37.079 379.58 48.332 376.96 61.611 371.723C84.954 362.516 113.794 345.373 145.1 322.125C159.551 326.996 174.627 329.454 189.76 329.454C199.7 329.454 209.668 328.394 219.489 326.266C245.649 320.599 269.526 307.553 288.539 288.54C307.553 269.527 320.599 245.65 326.266 219.489C331.633 194.719 330.18 169.055 322.114 145.115C345.367 113.803 362.514 84.958 371.722 61.611C382.015 35.519 382.198 17.251 372.263 7.317ZM61.132 161.784C66.474 137.128 78.772 114.621 96.696 96.697C114.62 78.772 137.128 66.474 161.783 61.133C185.803 55.928 210.717 57.505 233.834 65.691C242.691 68.825 251.216 72.923 259.176 77.873C267.714 83.17 275.69 89.504 282.884 96.698C289.522 103.336 295.415 110.645 300.45 118.44C283.609 148.471 254.355 185.27 219.811 219.813C185.265 254.358 148.468 283.612 118.438 300.452C110.643 295.418 103.333 289.524 96.696 282.887C89.504 275.695 83.17 267.719 77.87 259.177C72.921 251.219 68.823 242.693 65.689 233.836C57.504 210.719 55.928 185.804 61.132 161.784ZM304.722 110.435C299.946 103.535 294.529 97.028 288.541 91.039C282.553 85.051 276.046 79.634 269.146 74.859C290.417 64.125 306.352 61.246 312.344 67.237C318.335 73.23 315.455 89.164 304.722 110.435ZM74.859 269.146C79.635 276.048 85.052 282.555 91.039 288.542C97.027 294.53 103.534 299.946 110.434 304.722C89.162 315.456 73.229 318.335 67.238 312.343C61.246 306.351 64.125 290.417 74.859 269.146ZM318.449 217.797C313.107 242.453 300.809 264.96 282.885 282.884C264.96 300.809 242.453 313.107 217.797 318.448C196.259 323.115 174.005 322.312 152.971 316.198C181.464 294.389 211.307 268.068 239.688 239.688C268.069 211.307 294.39 181.463 316.199 152.971C322.312 174.006 323.115 196.259 318.449 217.797ZM364.281 58.678C355.164 81.793 337.935 110.612 314.458 142.017C292.012 172.044 264.2 203.862 234.032 234.031C203.863 264.199 172.045 292.01 142.017 314.458C110.612 337.935 81.793 355.164 58.678 364.281C36.466 373.041 20.235 373.866 12.974 366.606C5.71197 359.345 6.53797 343.114 15.299 320.903C23.848 299.23 39.527 272.542 60.802 243.409C63.382 249.621 66.422 255.639 69.868 261.397C55.081 289.074 52.205 308.624 61.581 318C65.189 321.607 70.302 323.402 76.806 323.402C87.615 323.402 102.263 318.444 120.215 308.616C151.251 291.628 189.614 261.322 225.468 225.468C261.322 189.615 291.628 151.252 308.617 120.215C324.359 91.461 327.603 71.186 318 61.581C308.627 52.206 289.074 55.081 261.397 69.869C255.638 66.423 249.62 63.382 243.409 60.803C272.542 39.528 299.229 23.848 320.903 15.3C343.112 6.54 359.345 5.713 366.607 12.975C373.868 20.236 373.042 36.467 364.281 58.678Z" fill="white"/>
</svg>
